<svg version="1.1" id="Layer_1" xmlns="http://www.w3.org/2000/svg" xmlns:xlink="http://www.w3.org/1999/xlink" x="0px" y="0px"
	 width="100%" viewBox="0 0 213 232" enable-background="new 0 0 213 232" xml:space="preserve">
<path fill="transparent" opacity="1.000000" stroke="none" 
	d="
M121.000000,233.000000 
	C80.666672,233.000000 40.833340,233.000000 1.000005,233.000000 
	C1.000004,155.666672 1.000004,78.333351 1.000002,1.000016 
	C71.999992,1.000010 142.999985,1.000010 213.999969,1.000005 
	C213.999985,78.333321 213.999985,155.666641 214.000000,232.999969 
	C183.166672,233.000000 152.333328,233.000000 121.000000,233.000000 
M60.610580,166.777817 
	C57.974533,180.923691 62.100323,189.820343 74.038925,195.300446 
	C74.038925,182.773956 74.038925,170.362396 74.116119,157.021835 
	C74.071838,145.667831 74.027557,134.313828 74.132591,122.037857 
	C74.136536,116.049004 74.428833,110.041649 74.046257,104.077591 
	C73.776932,99.878952 75.701691,97.324883 78.471527,94.655098 
	C85.164841,88.203568 91.560051,81.443924 98.191963,74.927055 
	C101.927498,71.256310 105.894104,67.820709 111.045662,63.097267 
	C121.759399,74.410385 132.210068,85.319618 142.452698,96.420799 
	C143.735138,97.810745 144.422058,100.190506 144.515518,102.153046 
	C144.776321,107.629974 144.385086,113.138840 144.670334,118.613266 
	C144.770508,120.535667 146.088257,122.394623 146.792618,125.039223 
	C146.200668,129.758652 145.361618,134.463272 145.077881,139.201172 
	C144.703369,145.454605 144.764389,151.734131 144.589020,158.937820 
	C144.589020,171.151306 144.589020,183.364792 144.589020,197.059402 
	C148.190628,194.015961 150.676056,191.940704 153.134277,189.833664 
	C159.817764,184.105042 161.882095,175.063324 158.725220,165.460144 
	C158.803680,162.631531 158.878677,159.802795 158.961273,156.974304 
	C159.207809,148.533127 159.457306,140.092026 159.668823,130.758469 
	C159.674759,121.767082 159.173492,112.737755 159.842377,103.795959 
	C160.407532,96.240936 158.343964,90.560135 152.056091,86.369354 
	C147.895859,83.596603 146.709351,79.598419 146.978607,74.717705 
	C147.285477,69.155106 147.049591,63.562553 147.049591,57.647850 
	C141.904251,57.647850 137.670166,57.647850 133.281601,57.647850 
	C132.993011,60.496006 132.733688,63.055328 132.356384,66.779030 
	C124.401024,58.900539 117.193329,51.762489 109.565567,44.208431 
	C93.241920,60.458458 77.417953,76.129562 61.758411,91.963295 
	C60.576401,93.158447 60.109299,95.505081 60.084549,97.326981 
	C59.942085,107.814827 59.999054,118.306129 60.086330,128.795441 
	C60.097782,130.171753 60.669907,131.543396 60.927826,133.778687 
	C60.962307,144.538239 60.996788,155.297791 60.610580,166.777817 
M43.797585,140.323074 
	C42.276569,136.909210 40.755554,133.495331 39.407303,129.486588 
	C39.076626,128.764297 38.745949,128.042007 38.404484,126.543098 
	C31.524273,94.314774 40.590286,67.406998 65.952118,46.428699 
	C84.524925,31.066011 105.957443,26.596083 129.020416,33.532425 
	C147.668747,39.141029 162.063187,50.779869 172.193893,67.667755 
	C179.362442,79.617714 183.309006,92.287369 183.514648,106.275963 
	C183.699661,118.859894 180.418594,130.504395 174.846802,142.190353 
	C174.443268,144.338760 172.953186,147.523468 173.833954,148.446930 
	C176.824615,151.582504 180.653046,153.919052 184.823959,157.059616 
	C186.453293,153.263397 187.786057,150.158157 189.672562,146.607712 
	C189.972702,145.833633 190.251007,145.050278 190.576126,144.286835 
	C202.704346,115.806725 200.394287,87.910385 185.715942,61.260201 
	C176.443481,44.424976 162.530518,31.942619 144.692200,23.931122 
	C128.721283,16.758295 112.176270,13.907391 95.095322,17.328989 
	C64.279442,23.501921 42.354012,41.157001 29.619373,70.100143 
	C18.227057,95.992462 18.710705,121.624306 30.695850,147.891769 
	C32.050777,150.671158 33.405708,153.450531 35.000973,156.722931 
	C37.813377,154.717056 40.098316,153.146408 42.320206,151.491104 
	C47.929489,147.312210 47.918118,147.296951 43.797585,140.323074 
M93.966949,207.225250 
	C99.090034,212.614365 104.213112,218.003479 108.947472,222.983704 
	C114.362587,217.859238 119.455269,213.331436 124.153389,208.425781 
	C125.667679,206.844620 126.948059,204.277145 126.969635,202.147064 
	C127.177307,181.650055 127.098511,161.150070 127.080063,140.650955 
	C127.078766,139.208450 126.905739,137.766129 126.808121,136.254944 
	C115.247498,136.254944 104.023735,136.254944 92.672379,136.254944 
	C92.547447,137.206604 92.389526,137.850586 92.388977,138.494690 
	C92.370827,159.993729 92.350670,181.492828 92.406319,202.991730 
	C92.409538,204.230515 93.047646,205.467682 93.966949,207.225250 
M110.291008,96.931404 
	C103.620354,97.367165 99.738503,101.848045 101.588707,107.052734 
	C103.024666,111.092171 105.991508,113.500771 110.239738,113.103310 
	C114.139877,112.738396 117.105858,110.468994 117.513390,106.173767 
	C117.966347,101.399872 115.853500,98.222771 110.291008,96.931404 
z"/>
<path fill="#F4F6F7" opacity="1.000000" stroke="none" 
	d="
M175.311768,141.795181 
	C180.418594,130.504395 183.699661,118.859894 183.514648,106.275963 
	C183.309006,92.287369 179.362442,79.617714 172.193893,67.667755 
	C162.063187,50.779869 147.668747,39.141029 129.020416,33.532425 
	C105.957443,26.596083 84.524925,31.066011 65.952118,46.428699 
	C40.590286,67.406998 31.524273,94.314774 38.299095,127.236816 
	C38.540649,128.647507 38.887596,129.364487 39.234543,130.081467 
	C40.755554,133.495331 42.276569,136.909210 43.568169,140.895599 
	C39.129562,143.358398 34.920364,145.248688 30.711170,147.138977 
	C18.710705,121.624306 18.227057,95.992462 29.619373,70.100143 
	C42.354012,41.157001 64.279442,23.501921 95.095322,17.328989 
	C112.176270,13.907391 128.721283,16.758295 144.692200,23.931122 
	C162.530518,31.942619 176.443481,44.424976 185.715942,61.260201 
	C200.394287,87.910385 202.704346,115.806725 190.576126,144.286835 
	C190.251007,145.050278 189.972702,145.833633 188.999664,146.829025 
	C183.988419,145.298615 179.650101,143.546906 175.311768,141.795181 
z"/>
<path fill="#F5F7F8" opacity="1.000000" stroke="none" 
	d="
M60.982349,132.917191 
	C60.669907,131.543396 60.097782,130.171753 60.086330,128.795441 
	C59.999054,118.306129 59.942085,107.814827 60.084549,97.326981 
	C60.109299,95.505081 60.576401,93.158447 61.758411,91.963295 
	C77.417953,76.129562 93.241920,60.458458 109.565567,44.208431 
	C117.193329,51.762489 124.401024,58.900539 132.356384,66.779030 
	C132.733688,63.055328 132.993011,60.496006 133.281601,57.647850 
	C137.670166,57.647850 141.904251,57.647850 147.049591,57.647850 
	C147.049591,63.562553 147.285477,69.155106 146.978607,74.717705 
	C146.709351,79.598419 147.895859,83.596603 152.056091,86.369354 
	C158.343964,90.560135 160.407532,96.240936 159.842377,103.795959 
	C159.173492,112.737755 159.674759,121.767082 159.345642,131.292892 
	C154.964981,129.312393 150.907516,126.797470 146.850037,124.282547 
	C146.088257,122.394623 144.770508,120.535667 144.670334,118.613266 
	C144.385086,113.138840 144.776321,107.629974 144.515518,102.153046 
	C144.422058,100.190506 143.735138,97.810745 142.452698,96.420799 
	C132.210068,85.319618 121.759399,74.410385 111.045662,63.097267 
	C105.894104,67.820709 101.927498,71.256310 98.191963,74.927055 
	C91.560051,81.443924 85.164841,88.203568 78.471527,94.655098 
	C75.701691,97.324883 73.776932,99.878952 74.046257,104.077591 
	C74.428833,110.041649 74.136536,116.049004 73.748154,122.631714 
	C69.236603,126.456108 65.109474,129.686646 60.982349,132.917191 
z"/>
<path fill="#F7F9F9" opacity="1.000000" stroke="none" 
	d="
M93.678619,206.965424 
	C93.047646,205.467682 92.409538,204.230515 92.406319,202.991730 
	C92.350670,181.492828 92.370827,159.993729 92.388977,138.494690 
	C92.389526,137.850586 92.547447,137.206604 92.672379,136.254944 
	C104.023735,136.254944 115.247498,136.254944 126.808121,136.254944 
	C126.905739,137.766129 127.078766,139.208450 127.080063,140.650955 
	C127.098511,161.150070 127.177307,181.650055 126.969635,202.147064 
	C126.948059,204.277145 125.667679,206.844620 124.153389,208.425781 
	C119.455269,213.331436 114.362587,217.859238 108.947472,222.983704 
	C104.213112,218.003479 99.090034,212.614365 93.678619,206.965424 
z"/>
<path fill="#52687E" opacity="1.000000" stroke="none" 
	d="
M146.821320,124.660889 
	C150.907516,126.797470 154.964981,129.312393 159.364044,131.739105 
	C159.457306,140.092026 159.207809,148.533127 158.961273,156.974304 
	C158.878677,159.802795 158.803680,162.631531 158.293884,165.835724 
	C153.454422,163.475006 149.046310,160.738724 144.638184,158.002441 
	C144.764389,151.734131 144.703369,145.454605 145.077881,139.201172 
	C145.361618,134.463272 146.200668,129.758652 146.821320,124.660889 
z"/>
<path fill="#4A6179" opacity="1.000000" stroke="none" 
	d="
M60.955086,133.347931 
	C65.109474,129.686646 69.236603,126.456108 73.673492,123.092697 
	C74.027557,134.313828 74.071838,145.667831 73.727745,157.528961 
	C69.236671,160.709839 65.133965,163.383591 61.031265,166.057343 
	C60.996788,155.297791 60.962307,144.538239 60.955086,133.347931 
z"/>
<path fill="#D5DDE6" opacity="1.000000" stroke="none" 
	d="
M144.613602,158.470123 
	C149.046310,160.738724 153.454422,163.475006 158.179489,166.318771 
	C161.882095,175.063324 159.817764,184.105042 153.134277,189.833664 
	C150.676056,191.940704 148.190628,194.015961 144.589020,197.059402 
	C144.589020,183.364792 144.589020,171.151306 144.613602,158.470123 
z"/>
<path fill="#D8E1EA" opacity="1.000000" stroke="none" 
	d="
M60.820923,166.417572 
	C65.133965,163.383591 69.236671,160.709839 73.689148,157.993469 
	C74.038925,170.362396 74.038925,182.773956 74.038925,195.300446 
	C62.100323,189.820343 57.974533,180.923691 60.820923,166.417572 
z"/>
<path fill="#EDF1F3" opacity="1.000000" stroke="none" 
	d="
M110.692001,96.964386 
	C115.853500,98.222771 117.966347,101.399872 117.513390,106.173767 
	C117.105858,110.468994 114.139877,112.738396 110.239738,113.103310 
	C105.991508,113.500771 103.024666,111.092171 101.588707,107.052734 
	C99.738503,101.848045 103.620354,97.367165 110.692001,96.964386 
z"/>
<path fill="#D1DBE4" opacity="1.000000" stroke="none" 
	d="
M175.079285,141.992767 
	C179.650101,143.546906 183.988419,145.298615 188.722778,147.051620 
	C187.786057,150.158157 186.453293,153.263397 184.823959,157.059616 
	C180.653046,153.919052 176.824615,151.582504 173.833954,148.446930 
	C172.953186,147.523468 174.443268,144.338760 175.079285,141.992767 
z"/>
<path fill="#D1DAE4" opacity="1.000000" stroke="none" 
	d="
M30.703510,147.515381 
	C34.920364,145.248688 39.129562,143.358398 43.595856,141.252213 
	C47.918118,147.296951 47.929489,147.312210 42.320206,151.491104 
	C40.098316,153.146408 37.813377,154.717056 35.000973,156.722931 
	C33.405708,153.450531 32.050777,150.671158 30.703510,147.515381 
z"/>
<path fill="#D1DAE4" opacity="1.000000" stroke="none" 
	d="
M39.320923,129.784027 
	C38.887596,129.364487 38.540649,128.647507 38.304489,127.625122 
	C38.745949,128.042007 39.076626,128.764297 39.320923,129.784027 
z"/>
</svg>